<svg width="172" height="88"  viewBox="0 0 86 43" fill="none" xmlns="http://www.w3.org/2000/svg">
<rect x="0.0410156" y="0.105469" width="85.6084" height="42.3008" fill="#F5F7F8"/>
<g clip-path="url(#clip0_2007_141)">
<path fill-rule="evenodd" clip-rule="evenodd" d="M25.6797 24.9844V10.6055H34.4079L34.6767 14.5381H29.7889V16.4124H33.7713V20.337H29.7605V24.9844H25.6797ZM59.2974 24.9418L54.93 17.4817L58.8977 10.6055H54.5268L52.7144 13.7007L50.9324 10.6055H46.4108L50.4536 17.5294L46.1714 24.9504L50.5642 24.9484L52.6606 21.3145L54.7794 24.9418H59.2974Z" fill="black"/>
<path fill-rule="evenodd" clip-rule="evenodd" d="M42.7138 20.6822V14.9371C42.7138 14.2833 42.1396 13.6954 41.4914 13.6954C40.8461 13.6954 40.3227 14.2838 40.3227 14.9371L40.3201 20.6639C40.3201 21.3198 40.8461 21.8509 41.4919 21.8509C42.1396 21.8509 42.7143 21.3381 42.7143 20.6812L42.7138 20.6822ZM34.5664 17.8102C34.5664 13.9521 37.6576 10.8203 41.4711 10.8203C45.2881 10.8203 48.3803 13.9521 48.3803 17.8102C48.3803 21.6739 45.2881 24.8031 41.4711 24.8031C37.6576 24.8031 34.5664 21.6739 34.5664 17.8102ZM25.3457 31.2233V30.4802L25.7287 30.1124H28.8254L28.9421 29.9968V29.209L28.8579 29.1238H25.9833L25.3457 28.4923V26.6814L26.0812 25.9525H30.2482V26.7539L29.949 27.0583H26.9253L26.8086 27.1739V27.9429L26.8928 28.0256H29.7613L30.3984 28.6597V30.4949L29.6644 31.2228L25.3457 31.2233ZM34.7698 28.5044L34.9844 28.2924V27.283L34.7698 27.0705H32.7748V28.5044H34.7698ZM31.3104 25.953H35.6352L36.4544 26.7646V28.718L35.6352 29.5311H32.7748V31.2233H31.3104V25.953ZM40.6787 29.9892L40.9811 29.695V27.3941L40.6787 27.0963H38.9764L38.6782 27.3941V29.6944L38.9764 29.9892H40.6787ZM37.2219 30.4127V26.7651L38.0335 25.9525H41.6232L42.4424 26.7651V30.4127L41.6232 31.2233H38.034L37.2219 30.4127ZM46.8311 28.2138L47.0391 28.0073V27.2389L46.8311 27.0324H44.8605V28.2138H46.8311ZM43.3986 25.9525H47.768L48.5035 26.6809V28.3634L47.8015 29.0599L48.7252 31.2233H47.0979L46.4101 29.3115H44.861V31.2238H43.3986V25.9525ZM50.6877 27.1739H48.9966V25.9525H53.8423V27.1739H52.1516V31.2233H50.6882L50.6877 27.1739ZM54.6321 31.3684V30.6242L55.0161 30.2565H58.1123L58.229 30.1413V29.3531L58.1448 29.2684H55.2712L54.6321 28.6363V26.8255L55.3676 26.0965H59.5356V26.898L59.2364 27.2023H56.2142L56.097 27.318V28.087L56.1807 28.1702H59.0502L59.6868 28.8042V30.6394L58.9513 31.3684H54.6321Z" fill="black"/>
</g>
<defs>
<clipPath id="clip0_2007_141">
<rect width="35" height="21.3043" fill="white" transform="translate(25.3457 10.6055)"/>
</clipPath>
</defs>
</svg>
